<svg width="18" height="42" viewBox="0 0 18 42" fill="none" xmlns="http://www.w3.org/2000/svg">
<mask id="path-1-inside-1_1068_1818" fill="white">
<path d="M5.73134 3.85978C7.40956 -0.227364 10.1428 -0.232443 11.8362 3.84844L15.9328 13.7209C17.6262 17.8018 17.6386 24.4233 15.9603 28.5104L11.8625 38.4904C10.1843 42.5776 7.45102 42.5826 5.75762 38.5018L1.66097 28.6293C-0.032433 24.5484 -0.0447434 17.9269 1.63347 13.8398L5.73134 3.85978Z"/>
</mask>
<path d="M5.73134 3.85979C7.61933 -0.738255 10.6942 -0.743971 12.5993 3.84702L16.3127 12.7958C18.2178 17.3868 18.2316 24.836 16.3436 29.434L15.5771 27.5868C17.0455 24.0105 17.0347 18.2167 15.553 14.6459L11.4564 4.77349C9.76296 0.692612 7.19978 0.283532 5.73134 3.85979ZM8.82379 45.8908L-1.4052 21.2402L8.82379 45.8908ZM-1.4052 21.2402L8.77002 -3.54065L-1.4052 21.2402ZM16.3127 12.7958C18.2178 17.3868 18.2316 24.836 16.3436 29.434L12.6256 38.489C10.7376 43.087 7.6627 43.0927 5.75762 38.5018C7.23935 42.0725 9.80098 41.6539 11.4792 37.5668L15.5771 27.5868C17.0455 24.0105 17.0347 18.2167 15.553 14.6459L16.3127 12.7958Z" fill="#A2A2A2" fill-opacity="0.43" mask="url(#path-1-inside-1_1068_1818)"/>
</svg>
