<svg width="18" height="42" viewBox="0 0 18 42" fill="none" xmlns="http://www.w3.org/2000/svg">
<mask id="path-1-inside-1_1068_1817" fill="white">
<path d="M12.2677 3.85978C10.5895 -0.227364 7.85623 -0.232443 6.16283 3.84844L2.06618 13.7209C0.372778 17.8018 0.360468 24.4233 2.03868 28.5104L6.13656 38.4904C7.81477 42.5776 10.548 42.5826 12.2414 38.5018L16.3381 28.6293C18.0315 24.5484 18.0438 17.9269 16.3656 13.8398L12.2677 3.85978Z"/>
</mask>
<path d="M12.2677 3.85979C10.3797 -0.738255 7.3048 -0.743971 5.39973 3.84702L1.68634 12.7958C-0.218732 17.3868 -0.232579 24.836 1.65541 29.434L2.42195 27.5868C0.953517 24.0105 0.964287 18.2167 2.44601 14.6459L6.54267 4.77349C8.23607 0.692612 10.7992 0.283532 12.2677 3.85979ZM9.17523 45.8908L19.4042 21.2402L9.17523 45.8908ZM19.4042 21.2402L9.229 -3.54065L19.4042 21.2402ZM1.68634 12.7958C-0.218732 17.3868 -0.232579 24.836 1.65541 29.434L5.37345 38.489C7.26144 43.087 10.3363 43.0927 12.2414 38.5018C10.7597 42.0725 8.19804 41.6539 6.51983 37.5668L2.42195 27.5868C0.953517 24.0105 0.964287 18.2167 2.44601 14.6459L1.68634 12.7958Z" fill="#A2A2A2" fill-opacity="0.43" mask="url(#path-1-inside-1_1068_1817)"/>
</svg>
